<?xml version="1.0" encoding="UTF-8" standalone="no"?>
<!DOCTYPE svg PUBLIC "-//W3C//DTD SVG 1.1//EN"
 "http://www.w3.org/Graphics/SVG/1.1/DTD/svg11.dtd">
<!-- Generated by graphviz version 2.40.1 (20161225.0304)
 -->
<!-- Title: T Pages: 1 -->
<svg width="334pt" height="299pt"
 viewBox="0.00 0.00 334.00 299.00" xmlns="http://www.w3.org/2000/svg" xmlns:xlink="http://www.w3.org/1999/xlink">
<g id="graph0" class="graph" transform="scale(1 1) rotate(0) translate(4 295)">
<title>T</title>
<polygon fill="#ffffff" stroke="transparent" points="-4,4 -4,-295 330,-295 330,4 -4,4"/>
<!-- D1 -->
<g id="node1" class="node">
<title>D1</title>
<ellipse fill="none" stroke="#000000" cx="163" cy="-273" rx="27" ry="18"/>
<text text-anchor="middle" x="163" y="-269.9" font-family="times" font-size="12.00" fill="#000000">D1</text>
</g>
<!-- D1,D2 -->
<g id="node2" class="node">
<title>D1,D2</title>
<ellipse fill="none" stroke="#000000" cx="120" cy="-188" rx="30.5603" ry="18"/>
<text text-anchor="middle" x="120" y="-184.9" font-family="times" font-size="12.00" fill="#000000">D1,D2</text>
</g>
<!-- D1&#45;&gt;D1,D2 -->
<g id="edge1" class="edge">
<title>D1&#45;&gt;D1,D2</title>
<path fill="none" stroke="#000000" d="M151.5876,-256.5241C147.6677,-250.519 143.4119,-243.5853 140,-237 136.4547,-230.1572 133.0857,-222.5384 130.1579,-215.3866"/>
<polygon fill="#000000" stroke="#000000" points="133.3947,-214.0538 126.464,-206.0403 126.8847,-216.6268 133.3947,-214.0538"/>
<text text-anchor="middle" x="158.5" y="-227.4" font-family="times" font-size="12.00" fill="#000000">D1&lt;D2</text>
</g>
<!-- D2,D1 -->
<g id="node3" class="node">
<title>D2,D1</title>
<ellipse fill="none" stroke="#000000" cx="206" cy="-188" rx="30.5603" ry="18"/>
<text text-anchor="middle" x="206" y="-184.9" font-family="times" font-size="12.00" fill="#000000">D2,D1</text>
</g>
<!-- D1&#45;&gt;D2,D1 -->
<g id="edge2" class="edge">
<title>D1&#45;&gt;D2,D1</title>
<path fill="none" stroke="#000000" d="M171.7017,-255.799C177.6654,-244.0102 185.6947,-228.1383 192.4853,-214.7152"/>
<polygon fill="#000000" stroke="#000000" points="195.7726,-215.9703 197.1637,-205.4672 189.5264,-212.8104 195.7726,-215.9703"/>
<text text-anchor="middle" x="206.5" y="-227.4" font-family="times" font-size="12.00" fill="#000000">D1&gt;D2</text>
</g>
<!-- D1,D2,D3 -->
<g id="node4" class="node">
<title>D1,D2,D3</title>
<polygon fill="none" stroke="#000000" points="72,-121 4,-121 4,-85 72,-85 72,-121"/>
<text text-anchor="middle" x="38" y="-99.9" font-family="times" font-size="12.00" fill="#000000">D1,D2,D3</text>
</g>
<!-- D1,D2&#45;&gt;D1,D2,D3 -->
<g id="edge3" class="edge">
<title>D1,D2&#45;&gt;D1,D2,D3</title>
<path fill="none" stroke="#000000" d="M101.9009,-173.1548C94.5612,-166.8705 86.1473,-159.3196 79,-152 72.0571,-144.8897 64.952,-136.7546 58.6488,-129.1829"/>
<polygon fill="#000000" stroke="#000000" points="61.2104,-126.7867 52.1693,-121.2631 55.7926,-131.2192 61.2104,-126.7867"/>
<text text-anchor="middle" x="97.5" y="-142.4" font-family="times" font-size="12.00" fill="#000000">D2&lt;D3</text>
</g>
<!-- ?,?,D2 -->
<g id="node5" class="node">
<title>?,?,D2</title>
<ellipse fill="none" stroke="#000000" cx="120" cy="-103" rx="29.5964" ry="18"/>
<text text-anchor="middle" x="120" y="-99.9" font-family="times" font-size="12.00" fill="#000000">?,?,D2</text>
</g>
<!-- D1,D2&#45;&gt;?,?,D2 -->
<g id="edge4" class="edge">
<title>D1,D2&#45;&gt;?,?,D2</title>
<path fill="none" stroke="#000000" d="M120,-169.9737C120,-158.7043 120,-143.9524 120,-131.1627"/>
<polygon fill="#000000" stroke="#000000" points="123.5001,-131.0003 120,-121.0003 116.5001,-131.0004 123.5001,-131.0003"/>
<text text-anchor="middle" x="138.5" y="-142.4" font-family="times" font-size="12.00" fill="#000000">D2&gt;D3</text>
</g>
<!-- D2,?,? -->
<g id="node6" class="node">
<title>D2,?,?</title>
<ellipse fill="none" stroke="#000000" cx="206" cy="-103" rx="29.5964" ry="18"/>
<text text-anchor="middle" x="206" y="-99.9" font-family="times" font-size="12.00" fill="#000000">D2,?,?</text>
</g>
<!-- D2,D1&#45;&gt;D2,?,? -->
<g id="edge5" class="edge">
<title>D2,D1&#45;&gt;D2,?,?</title>
<path fill="none" stroke="#000000" d="M206,-169.9737C206,-158.7043 206,-143.9524 206,-131.1627"/>
<polygon fill="#000000" stroke="#000000" points="209.5001,-131.0003 206,-121.0003 202.5001,-131.0004 209.5001,-131.0003"/>
<text text-anchor="middle" x="224.5" y="-142.4" font-family="times" font-size="12.00" fill="#000000">D2&lt;D3</text>
</g>
<!-- D3,D2,D1 -->
<g id="node7" class="node">
<title>D3,D2,D1</title>
<polygon fill="none" stroke="#000000" points="322,-121 254,-121 254,-85 322,-85 322,-121"/>
<text text-anchor="middle" x="288" y="-99.9" font-family="times" font-size="12.00" fill="#000000">D3,D2,D1</text>
</g>
<!-- D2,D1&#45;&gt;D3,D2,D1 -->
<g id="edge6" class="edge">
<title>D2,D1&#45;&gt;D3,D2,D1</title>
<path fill="none" stroke="#000000" d="M224.0991,-173.1548C231.4388,-166.8705 239.8527,-159.3196 247,-152 253.9429,-144.8897 261.048,-136.7546 267.3512,-129.1829"/>
<polygon fill="#000000" stroke="#000000" points="270.2074,-131.2192 273.8307,-121.2631 264.7896,-126.7867 270.2074,-131.2192"/>
<text text-anchor="middle" x="277.5" y="-142.4" font-family="times" font-size="12.00" fill="#000000">D2&gt;D3</text>
</g>
<!-- D1,D3,D2 -->
<g id="node8" class="node">
<title>D1,D3,D2</title>
<polygon fill="none" stroke="#000000" points="68,-36 0,-36 0,0 68,0 68,-36"/>
<text text-anchor="middle" x="34" y="-14.9" font-family="times" font-size="12.00" fill="#000000">D1,D3,D2</text>
</g>
<!-- ?,?,D2&#45;&gt;D1,D3,D2 -->
<g id="edge7" class="edge">
<title>?,?,D2&#45;&gt;D1,D3,D2</title>
<path fill="none" stroke="#000000" d="M102.4734,-88.3369C95.0672,-81.9565 86.4497,-74.2852 79,-67 71.6016,-59.7649 63.87,-51.5923 56.9446,-44.0247"/>
<polygon fill="#000000" stroke="#000000" points="59.1031,-41.1934 49.8001,-36.1234 53.9109,-45.8882 59.1031,-41.1934"/>
<text text-anchor="middle" x="97.5" y="-57.4" font-family="times" font-size="12.00" fill="#000000">D1&lt;D3</text>
</g>
<!-- D3,D1,D2 -->
<g id="node9" class="node">
<title>D3,D1,D2</title>
<polygon fill="none" stroke="#000000" points="154,-36 86,-36 86,0 154,0 154,-36"/>
<text text-anchor="middle" x="120" y="-14.9" font-family="times" font-size="12.00" fill="#000000">D3,D1,D2</text>
</g>
<!-- ?,?,D2&#45;&gt;D3,D1,D2 -->
<g id="edge8" class="edge">
<title>?,?,D2&#45;&gt;D3,D1,D2</title>
<path fill="none" stroke="#000000" d="M120,-84.9737C120,-73.7043 120,-58.9524 120,-46.1627"/>
<polygon fill="#000000" stroke="#000000" points="123.5001,-46.0003 120,-36.0003 116.5001,-46.0004 123.5001,-46.0003"/>
<text text-anchor="middle" x="138.5" y="-57.4" font-family="times" font-size="12.00" fill="#000000">D1&gt;D3</text>
</g>
<!-- D2,D1,D3 -->
<g id="node10" class="node">
<title>D2,D1,D3</title>
<polygon fill="none" stroke="#000000" points="240,-36 172,-36 172,0 240,0 240,-36"/>
<text text-anchor="middle" x="206" y="-14.9" font-family="times" font-size="12.00" fill="#000000">D2,D1,D3</text>
</g>
<!-- D2,?,?&#45;&gt;D2,D1,D3 -->
<g id="edge9" class="edge">
<title>D2,?,?&#45;&gt;D2,D1,D3</title>
<path fill="none" stroke="#000000" d="M206,-84.9737C206,-73.7043 206,-58.9524 206,-46.1627"/>
<polygon fill="#000000" stroke="#000000" points="209.5001,-46.0003 206,-36.0003 202.5001,-46.0004 209.5001,-46.0003"/>
<text text-anchor="middle" x="224.5" y="-57.4" font-family="times" font-size="12.00" fill="#000000">D1&lt;D3</text>
</g>
<!-- D2,D3,D1 -->
<g id="node11" class="node">
<title>D2,D3,D1</title>
<polygon fill="none" stroke="#000000" points="326,-36 258,-36 258,0 326,0 326,-36"/>
<text text-anchor="middle" x="292" y="-14.9" font-family="times" font-size="12.00" fill="#000000">D2,D3,D1</text>
</g>
<!-- D2,?,?&#45;&gt;D2,D3,D1 -->
<g id="edge10" class="edge">
<title>D2,?,?&#45;&gt;D2,D3,D1</title>
<path fill="none" stroke="#000000" d="M223.5266,-88.3369C230.9328,-81.9565 239.5503,-74.2852 247,-67 254.3984,-59.7649 262.13,-51.5923 269.0554,-44.0247"/>
<polygon fill="#000000" stroke="#000000" points="272.0891,-45.8882 276.1999,-36.1234 266.8969,-41.1934 272.0891,-45.8882"/>
<text text-anchor="middle" x="277.5" y="-57.4" font-family="times" font-size="12.00" fill="#000000">D1&gt;D3</text>
</g>
</g>
</svg>
